# xmcd
#
# Track frame offsets:
#	150
#	10675
#	32800
#	58910
#	101352
#	123567
#	144117
#	170100
#	204367
#	217082
#	239137
#	249832
#	269345
#
# Disc length: 3775 seconds
#
# Revision: 0
# Processed by: cddbd v1.4PL0 Copyright (c) Steve Scherf et al.
# Submitted via: dBpowerAMP V4.0
#
DISCID=bc0ebd0d
DTITLE=Varous Artists - Blues Guitar Heaven
DYEAR=1998
DGENRE=Blues
TTITLE0=West Coast Idea- Eric Clapton
TTITLE1=Reconsider Baby- T-Bone Walker
TTITLE2=Texas Flood- Buddy Guy
TTITLE3=Key Little Highway- Muddy Waters
TTITLE4=I Need You So Bad- Magic Sam
TTITLE5=Boom, Boom, I'm Gonna Shoot You Down- Chigago Blues Band w/ John Lee Hooker
TTITLE6=Bluebird Blues- Dave Spector w/ Ronnie Earl
TTITLE7=Trouble Don't Last Always- Buddy Guy w/ Jr. Wells
TTITLE8=Freight Loader- Eric Clapton
TTITLE9=Rosalie- Muddy Waters
TTITLE10=Someday Baby- Sleepy John Estes
TTITLE11=Five Long Years- Luther Allison
TTITLE12=Lockwood's Boogie- Robert Jr. Lockwood
EXTD=This is a collection of Blues Guitarists that is really hot! It was put out in 1998 by Delta Music Inc.
EXTT0=
EXTT1=
EXTT2=
EXTT3=
EXTT4=
EXTT5=
EXTT6=
EXTT7=
EXTT8=
EXTT9=
EXTT10=
EXTT11=
EXTT12=
PLAYORDER=
